<?xml version="1.0" encoding="iso-8859-1"?>
<!-- Uploaded to: SVG Repo, www.svgrepo.com, Generator: SVG Repo Mixer Tools -->
<svg height="800px" width="800px" version="1.1" id="Layer_1" xmlns="http://www.w3.org/2000/svg" xmlns:xlink="http://www.w3.org/1999/xlink" 
	 viewBox="0 0 512 512" xml:space="preserve">
<path style="fill:#E3DAB3;" d="M214.491,142.848c-6.544-26.085-30.12-45.408-58.234-45.408c-28.115,0-51.692,19.323-58.236,45.408
	H214.491z"/>
<g>
	<path style="fill:#EFBA50;" d="M99.214,72.363c-15.601-4.268-18.353-6.995-22.659-22.454c-0.543-1.947-2.329-3.294-4.368-3.294
		c-2.041,0-3.824,1.347-4.368,3.294c-4.306,15.459-7.061,18.185-22.657,22.454c-1.965,0.538-3.329,2.307-3.329,4.328
		c0,2.019,1.364,3.788,3.329,4.327c15.596,4.267,18.352,6.996,22.657,22.454c0.543,1.946,2.327,3.295,4.368,3.295
		c2.039,0,3.824-1.349,4.368-3.295c4.306-15.458,7.057-18.186,22.66-22.454c1.963-0.539,3.321-2.308,3.321-4.327
		C102.535,74.67,101.177,72.901,99.214,72.363z"/>
	<path style="fill:#EFBA50;" d="M291.343,129.877c-12.547-3.434-14.761-5.627-18.226-18.06c-0.435-1.566-1.874-2.648-3.51-2.648
		c-1.641,0-3.077,1.081-3.512,2.648c-3.463,12.433-5.68,14.626-18.224,18.06c-1.58,0.432-2.676,1.856-2.676,3.48
		c0,1.625,1.096,3.047,2.676,3.482c12.545,3.43,14.761,5.627,18.224,18.059c0.435,1.565,1.871,2.649,3.512,2.649
		c1.636,0,3.075-1.084,3.51-2.649c3.465-12.432,5.68-14.629,18.226-18.059c1.578-0.435,2.672-1.857,2.672-3.482
		C294.014,131.732,292.92,130.308,291.343,129.877z"/>
</g>
<path style="fill:#A87B2C;" d="M259.341,204.864l-41.91-62.015H94.961l-61.235,90.61l0.106,0.156
	c26.741-38.845,71.567-64.326,122.364-64.326c38.433,0,73.441,14.595,99.791,38.519
	C257.089,206.808,258.209,205.829,259.341,204.864z"/>
<path style="opacity:0.1;enable-background:new    ;" d="M103.236,179.012l24.44-36.164H94.961l-61.235,90.61l0.106,0.156
	C50.75,209.039,74.907,189.819,103.236,179.012z"/>
<path style="fill:#EFBA50;" d="M255.987,426.865c8.485-7.703,16.066-16.374,22.578-25.838c0.003,0.003,0.006,0.006,0.009,0.008
	c16.384-23.809,25.979-52.635,25.979-83.701c0-31.064-9.595-59.888-25.979-83.698c-8.97,8.249-16.614,17.911-22.577,28.627
	c9.084,16.331,14.268,35.108,14.268,55.071c0,62.769-51.172,113.836-114.072,113.836c-62.902,0-114.074-51.067-114.074-113.836
	c0-62.766,51.172-113.835,114.074-113.835c29.764,0,56.897,11.44,77.228,30.138c6.513-9.464,14.092-18.138,22.576-25.84
	c-26.352-23.924-61.371-38.509-99.804-38.509C74.259,169.289,7.837,235.572,7.837,317.336c0,81.765,66.422,148.049,148.359,148.049
	c38.433,0,73.452-14.584,99.804-38.508C255.997,426.872,255.992,426.869,255.987,426.865z"/>
<path style="fill:#A87B2C;" d="M355.807,169.289c-81.937,0-148.361,66.284-148.361,148.047c0,31.064,9.595,59.887,25.978,83.697
	c8.97-8.252,16.604-17.92,22.567-28.641c-9.079-16.327-14.259-35.098-14.259-55.056c0-62.766,51.174-113.835,114.076-113.835
	c62.898,0,114.072,51.069,114.072,113.835c0,62.769-51.174,113.836-114.071,113.836c-29.769,0-56.906-11.443-77.24-30.145
	c-6.512,9.465-14.094,18.134-22.578,25.838c26.354,23.93,61.379,38.519,99.818,38.519c81.937,0,148.357-66.284,148.357-148.049
	C504.163,235.572,437.743,169.289,355.807,169.289z"/>
<path d="M43.095,88.577c12.964,3.547,13.606,4.183,17.177,17.002c1.483,5.314,6.382,9.026,11.916,9.026
	c5.534,0,10.433-3.711,11.917-9.029c3.57-12.817,4.212-13.452,17.183-17c5.348-1.467,9.083-6.354,9.083-11.884
	c0-5.533-3.737-10.421-9.09-11.887c-12.966-3.547-13.608-4.183-17.178-17c-1.482-5.314-6.382-9.026-11.916-9.026
	c-5.534,0-10.434,3.711-11.917,9.028c-3.569,12.815-4.211,13.45-17.176,16.998c-5.356,1.466-9.097,6.354-9.097,11.887
	C33.998,82.221,37.738,87.107,43.095,88.577z M72.188,61.588c3.235,7.778,7.333,11.883,15.11,15.101
	c-7.777,3.219-11.875,7.324-15.11,15.102c-3.235-7.778-7.334-11.884-15.11-15.102C64.856,73.47,68.954,69.369,72.188,61.588z"/>
<path d="M245.802,144.397c9.899,2.707,10.018,2.824,12.74,12.597c1.372,4.939,5.921,8.388,11.063,8.388
	c5.141,0,9.689-3.45,11.059-8.381c2.726-9.779,2.845-9.897,12.759-12.608c4.962-1.368,8.426-5.905,8.426-11.037
	c0-5.14-3.471-9.679-8.44-11.038c-9.901-2.709-10.021-2.827-12.744-12.597c-1.371-4.939-5.919-8.388-11.061-8.388
	c-5.143,0-9.692,3.45-11.061,8.381c-2.723,9.776-2.842,9.894-12.74,12.605c-4.973,1.358-8.446,5.898-8.446,11.038
	C237.357,138.489,240.825,143.028,245.802,144.397z M269.606,124.786c2.088,3.869,4.703,6.488,8.571,8.57
	c-3.867,2.081-6.483,4.7-8.57,8.57c-2.088-3.87-4.704-6.49-8.57-8.571C264.903,131.274,267.518,128.655,269.606,124.786z"/>
<path d="M455.341,197.197c-3.337-2.757-8.277-2.286-11.033,1.051c-2.758,3.335-2.286,8.276,1.05,11.033
	c32.391,26.759,50.968,66.144,50.968,108.054c0,77.313-63.038,140.213-140.52,140.213c-32.245,0-63.236-10.959-88.161-31.021
	c4.359-4.434,8.456-9.126,12.259-14.043c21.548,17.163,48.182,26.526,75.903,26.526c67.22,0,121.908-54.582,121.908-121.673
	s-54.688-121.672-121.908-121.672c-67.222,0-121.912,54.581-121.912,121.672c0,19.064,4.529,37.944,13.13,54.883
	c-3.56,5.849-7.661,11.324-12.262,16.371c-12.772-21.533-19.481-45.979-19.481-71.255c0-77.312,63.04-140.211,140.524-140.211
	c24.503,0,48.622,6.384,69.75,18.463c3.756,2.149,8.544,0.845,10.692-2.913s0.843-8.545-2.914-10.692
	c-23.493-13.432-50.302-20.53-77.529-20.53c-35.583,0-68.419,11.941-94.712,32.011l-37.171-55.003
	c-0.848-1.256-2.032-2.206-3.383-2.792c-9.164-27.015-34.756-46.065-64.283-46.065c-29.504,0-55.08,19.019-64.263,46
	c-1.412,0.579-2.648,1.557-3.525,2.857c0,0-61.835,91.664-62.047,92.222C9.743,255.478,0,285.292,0,317.336
	c0,85.956,70.07,155.886,156.196,155.886c37.891,0,72.664-13.547,99.74-36.027c28.02,23.28,63.216,36.027,99.87,36.027
	c86.126,0,156.194-69.93,156.194-155.886C512,270.734,491.349,226.945,455.341,197.197z M255.994,281.018
	c4.158,11.335,6.437,23.563,6.437,36.318c0,12.733-2.272,24.946-6.418,36.266c-4.233-11.574-6.446-23.872-6.446-36.266
	C249.568,304.584,251.838,292.352,255.994,281.018z M99.123,150.685h56.567c4.328,0,7.837-3.509,7.837-7.837
	c0-4.329-3.509-7.837-7.837-7.837h-46.562c8.459-17.709,26.551-29.735,47.129-29.735c20.576,0,38.667,12.026,47.127,29.735h-22.617
	c-4.328,0-7.837,3.508-7.837,7.837c0,4.328,3.509,7.837,7.837,7.837h32.502l21.642,32.023
	c-23.742-13.821-50.913-21.256-78.714-21.256c-28.702,0-55.616,7.774-78.752,21.312L99.123,150.685z M156.196,457.548
	c-77.483,0-140.522-62.9-140.522-140.213c0-77.312,63.039-140.211,140.522-140.211c32.115,0,63.301,11.008,88.208,31.063
	c-4.359,4.43-8.454,9.119-12.263,14.039c-20.847-16.616-47.253-26.564-75.945-26.564c-4.328,0-7.837,3.508-7.837,7.837
	c0,4.329,3.509,7.837,7.837,7.837c25.368,0,48.682,8.923,66.97,23.784c-14.92,23.881-23.557,52.058-23.557,82.216
	c0,29.293,8.12,57.576,23.516,82.249c-18.282,14.84-41.58,23.751-66.929,23.751c-58.579,0-106.237-47.551-106.237-106
	c0-24.257,8.028-47.101,23.214-66.061c14.751-18.415,35.426-31.564,58.219-37.024c4.209-1.008,6.804-5.238,5.795-9.447
	c-1.008-4.21-5.24-6.804-9.447-5.796c-26.161,6.267-49.884,21.349-66.801,42.468c-17.189,21.459-26.655,48.399-26.655,75.86
	c0,67.091,54.689,121.673,121.91,121.673c67.22,0,121.908-54.582,121.908-121.673c0-19.741-4.747-38.391-13.144-54.894
	c3.56-5.843,7.664-11.32,12.251-16.354c8.514,14.369,14.456,30.213,17.379,46.797c0.751,4.262,4.811,7.103,9.078,6.359
	c4.262-0.751,7.109-4.815,6.358-9.078c-3.457-19.62-10.705-38.31-21.155-55.079c18.283-14.84,41.584-23.749,66.935-23.749
	c58.578,0,106.235,47.551,106.235,105.999c0,58.449-47.657,106-106.235,106c-24.51,0-48.034-8.423-66.957-23.804
	c14.912-23.879,23.543-52.048,23.543-82.196c0-4.329-3.509-7.837-7.837-7.837c-4.328,0-7.837,3.508-7.837,7.837
	C296.719,394.649,233.68,457.548,156.196,457.548z"/>
<g style="opacity:0.1;">
	<path d="M29.29,317.336c0-78.164,60.704-142.172,137.633-147.659c-3.543-0.252-7.119-0.388-10.727-0.388
		c-81.937,0-148.359,66.283-148.359,148.046c0,81.765,66.422,148.049,148.359,148.049c3.608,0,7.183-0.136,10.727-0.388
		C89.994,459.511,29.29,395.501,29.29,317.336z"/>
</g>
<path style="opacity:0.1;enable-background:new    ;" d="M130.845,142.848c5.219-20.803,21.273-37.304,41.826-43.133
	c-5.217-1.48-10.723-2.275-16.414-2.275c-28.115,0-51.692,19.323-58.236,45.408H130.845z"/>
</svg>